<svg width="30" height="30" viewBox="0 0 30 30" fill="none" xmlns="http://www.w3.org/2000/svg">
<path d="M15 0.5C6.7125 0.5 2.18932e-06 7.2125 2.18932e-06 15.5C-0.00169914 18.6489 0.988223 21.7184 2.82933 24.273C4.67043 26.8276 7.26922 28.7376 10.257 29.732C11.007 29.8625 11.2875 29.4125 11.2875 29.018C11.2875 28.6625 11.268 27.482 11.268 26.225C7.5 26.9195 6.525 25.307 6.225 24.4625C6.0555 24.0305 5.325 22.7 4.6875 22.343C4.1625 22.0625 3.4125 21.368 4.668 21.35C5.85 21.3305 6.693 22.4375 6.975 22.8875C8.325 25.1555 10.482 24.518 11.343 24.125C11.475 23.15 11.868 22.4945 12.3 22.1195C8.9625 21.7445 5.475 20.45 5.475 14.7125C5.475 13.0805 6.0555 11.732 7.0125 10.6805C6.8625 10.3055 6.3375 8.768 7.1625 6.7055C7.1625 6.7055 8.418 6.3125 11.2875 8.2445C12.5086 7.90559 13.7703 7.73501 15.0375 7.7375C16.3125 7.7375 17.5875 7.9055 18.7875 8.243C21.6555 6.293 22.9125 6.707 22.9125 6.707C23.7375 8.7695 23.2125 10.307 23.0625 10.682C24.018 11.732 24.6 13.0625 24.6 14.7125C24.6 20.4695 21.0945 21.7445 17.757 22.1195C18.3 22.5875 18.7695 23.4875 18.7695 24.8945C18.7695 26.9 18.75 28.5125 18.75 29.0195C18.75 29.4125 19.032 29.8805 19.782 29.7305C22.7595 28.7252 25.3469 26.8115 27.1799 24.2587C29.0128 21.706 29.9992 18.6427 30 15.5C30 7.2125 23.2875 0.5 15 0.5Z" fill="white"/>
</svg>
